<?xml version="1.0" standalone="no"?>
<!DOCTYPE svg PUBLIC "-//W3C//DTD SVG 20010904//EN"
 "http://www.w3.org/TR/2001/REC-SVG-20010904/DTD/svg10.dtd">
<svg version="1.0" xmlns="http://www.w3.org/2000/svg" viewBox="0 0 3508.000000 2479.000000"
>

<g transform="translate(0.000000,2479.000000) scale(0.100000,-0.100000)"
fill="black" stroke="none">
<path d="M2250 12390 l0 -6140 2880 0 c3103 0 2981 -2 3295 51 580 97 1063
349 1465 765 403 416 649 933 731 1534 20 143 17 509 -4 650 -101 660 -408
1227 -912 1687 -327 298 -730 507 -1145 592 -132 27 -394 58 -590 71 -103 6
-831 10 -1937 10 l-1773 0 0 2500 0 2500 4928 -3 c5369 -3 4996 1 5234 -56
354 -84 562 -275 640 -589 31 -121 30 -313 -1 -427 -75 -279 -282 -516 -521
-598 l-65 -22 -3482 -3 -3483 -2 0 -959 0 -960 53 -6 c28 -3 309 -5 622 -3
586 3 594 3 1105 -43 327 -29 520 -61 1000 -165 1143 -248 2050 -622 2925
-1203 347 -231 573 -412 838 -671 479 -467 804 -925 1061 -1495 l54 -120 871
-3 870 -2 -6 37 c-13 95 -59 279 -98 398 -172 519 -602 1269 -1024 1785 -326
398 -779 829 -1216 1156 -102 76 -115 85 -260 161 -137 74 -182 105 -197 139
-10 20 -8 28 12 49 31 33 82 47 344 95 396 73 568 126 841 260 537 264 952
685 1239 1257 139 278 224 589 257 937 14 156 7 476 -15 624 -115 774 -564
1470 -1234 1913 -394 261 -827 392 -1417 429 -104 6 -2230 10 -6022 10 l-5863
0 0 -6140z m3720 -2460 l0 -350 -1045 0 -1045 0 0 -150 0 -150 324 0 c489 0
838 -22 1061 -66 284 -57 495 -220 620 -479 59 -123 76 -188 82 -335 9 -209
-36 -372 -148 -540 -148 -221 -366 -328 -729 -360 -66 -6 -498 -10 -1007 -10
l-893 0 0 350 0 350 938 0 c829 0 945 2 992 16 99 29 130 66 130 152 0 104
-83 164 -250 182 -55 5 -458 10 -952 10 l-858 0 0 865 0 865 1390 0 1390 0 0
-350z m2484 322 c229 -64 385 -198 497 -427 76 -156 92 -230 93 -420 1 -141
-2 -169 -22 -235 -88 -277 -287 -471 -607 -589 l-70 -25 -560 -6 c-558 -5
-560 -5 -618 -29 -67 -26 -121 -70 -144 -115 -23 -44 -43 -124 -43 -173 l0
-43 1038 -2 1037 -3 3 -347 2 -348 -1381 0 -1382 0 6 378 c6 391 17 525 57
682 99 390 368 605 820 659 52 7 282 13 510 15 441 3 459 4 557 55 69 35 91
108 58 188 -19 45 -41 70 -80 92 -27 14 -122 16 -975 21 l-945 5 -3 335 c-1
184 0 341 3 348 4 10 197 12 1037 10 1032 -4 1033 -4 1112 -26z"/>
<path d="M17930 10695 l0 -125 215 0 215 0 0 -620 0 -620 135 0 135 0 2 618 3
617 218 3 217 2 0 125 0 125 -570 0 -570 0 0 -125z"/>
<path d="M21340 10075 l0 -745 125 0 125 0 0 285 c0 337 5 373 64 431 97 98
276 80 332 -33 17 -35 19 -67 22 -360 l3 -323 129 0 130 0 0 313 c0 171 -5
341 -11 376 -29 179 -146 296 -322 322 -115 17 -215 -10 -324 -88 l-23 -15 0
291 0 291 -125 0 -125 0 0 -745z"/>
<path d="M24930 10075 l0 -745 130 0 130 0 0 745 0 745 -130 0 -130 0 0 -745z"/>
<path d="M27997 10776 c-69 -25 -97 -66 -97 -143 0 -84 48 -138 132 -149 36
-5 56 -2 90 15 55 26 80 68 80 132 0 112 -100 183 -205 145z"/>
<path d="M31661 10780 c-524 -73 -863 -597 -710 -1097 69 -224 226 -410 434
-514 142 -70 230 -91 385 -91 183 0 321 41 473 140 340 221 474 669 315 1046
-106 250 -333 439 -599 500 -85 20 -219 27 -298 16z m322 -173 c217 -70 392
-244 465 -464 22 -67 25 -97 26 -208 1 -109 -3 -142 -22 -205 -71 -229 -236
-397 -467 -476 -72 -24 -94 -27 -215 -27 -121 0 -143 3 -215 27 -225 77 -384
236 -461 461 -24 70 -27 96 -28 210 -1 110 3 142 22 205 80 258 297 452 560
500 84 16 249 4 335 -23z"/>
<path d="M31648 10404 c-166 -40 -300 -171 -344 -339 -16 -59 -18 -192 -3
-254 27 -118 130 -252 237 -309 148 -79 345 -82 491 -7 64 32 143 113 186 189
19 34 35 68 35 74 0 9 -36 12 -120 12 l-119 0 -48 -48 c-35 -35 -62 -52 -95
-60 -188 -48 -342 61 -356 249 -14 204 152 339 356 287 33 -8 60 -25 95 -60
l48 -48 120 0 c120 0 120 0 114 23 -29 95 -132 211 -229 256 -109 52 -247 65
-368 35z"/>
<path d="M19423 10340 c-213 -38 -364 -184 -407 -393 -20 -94 -20 -162 -1
-252 21 -98 60 -170 130 -240 97 -97 222 -145 382 -145 209 0 366 83 443 235
18 36 30 68 27 71 -10 10 -232 54 -235 46 -25 -73 -105 -123 -208 -130 -158
-10 -255 55 -290 192 l-6 26 370 0 370 0 6 23 c3 12 6 54 6 92 0 216 -125 395
-318 455 -72 23 -200 32 -269 20z m205 -229 c59 -30 112 -102 112 -151 0 -20
-5 -20 -235 -20 -129 0 -235 2 -235 5 0 3 7 22 16 43 27 66 96 124 169 143 44
12 131 1 173 -20z"/>
<path d="M20594 10340 c-261 -38 -434 -243 -434 -515 0 -293 191 -496 480
-512 240 -13 428 101 496 301 9 26 15 49 13 51 -5 5 -241 46 -244 43 -1 -2
-10 -19 -20 -38 -59 -120 -208 -165 -333 -101 -180 92 -173 431 11 517 128 59
275 9 318 -109 l12 -33 91 16 c50 10 108 20 128 24 l37 7 -14 44 c-46 153
-184 270 -353 301 -84 15 -112 15 -188 4z"/>
<path d="M22993 10339 c-58 -11 -131 -44 -175 -79 -40 -32 -48 -27 -48 31 l0
29 -115 0 -115 0 0 -495 0 -495 125 0 125 0 0 308 c1 381 5 397 115 448 86 41
184 27 248 -34 51 -48 57 -95 57 -424 l0 -298 125 0 125 0 0 343 c0 371 -4
403 -57 494 -28 48 -96 114 -143 138 -37 19 -152 45 -195 44 -16 -1 -49 -5
-72 -10z"/>
<path d="M24092 10339 c-208 -35 -367 -174 -417 -364 -19 -76 -19 -214 0 -290
42 -161 161 -290 320 -345 84 -30 238 -37 329 -16 145 34 274 134 334 256 160
327 -17 693 -364 755 -88 16 -125 17 -202 4z m216 -255 c103 -51 147 -140 140
-278 -5 -93 -26 -142 -85 -200 -70 -68 -206 -85 -300 -37 -161 81 -194 338
-61 468 57 56 98 72 184 73 56 0 81 -5 122 -26z"/>
<path d="M25844 10340 c-124 -19 -223 -70 -304 -157 -91 -97 -128 -184 -137
-323 -14 -215 95 -408 278 -495 96 -45 171 -59 289 -52 157 9 263 58 362 165
95 105 134 225 125 387 -8 157 -75 284 -196 375 -108 81 -279 122 -417 100z
m189 -246 c61 -21 129 -95 148 -161 32 -112 7 -247 -59 -316 -96 -102 -280
-102 -378 0 -103 106 -106 310 -6 417 65 70 192 95 295 60z"/>
<path d="M27015 10343 c-16 -2 -57 -13 -90 -24 -273 -90 -403 -435 -270 -717
96 -204 325 -313 539 -257 59 16 135 54 156 80 23 28 30 15 30 -57 0 -129 -32
-195 -115 -237 -69 -35 -199 -37 -262 -3 -44 23 -86 70 -98 110 -5 18 -12 22
-28 19 -12 -3 -62 -13 -112 -22 -115 -20 -125 -24 -125 -39 0 -7 16 -45 35
-83 78 -157 238 -243 450 -243 197 0 358 81 442 221 62 103 63 118 63 701 l0
528 -114 0 -113 0 -7 -51 -7 -50 -33 29 c-85 74 -218 111 -341 95z m242 -266
c172 -109 161 -396 -20 -488 -95 -49 -221 -29 -293 46 -50 52 -74 117 -74 201
0 121 44 204 132 249 47 24 62 26 133 23 65 -4 88 -9 122 -31z"/>
<path d="M28813 10340 c-293 -52 -470 -325 -409 -631 49 -249 243 -399 516
-399 152 0 270 42 361 127 47 44 120 165 107 179 -11 11 -223 54 -229 46 -3
-4 -17 -24 -33 -45 -38 -52 -96 -79 -182 -85 -152 -10 -256 59 -288 191 l-6
27 369 0 c327 0 370 2 375 16 12 30 6 180 -9 239 -39 150 -153 269 -301 315
-74 23 -201 32 -271 20z m174 -216 c26 -9 61 -28 77 -42 30 -29 78 -120 70
-134 -7 -10 -461 -11 -468 0 -7 13 20 67 54 106 68 77 168 103 267 70z"/>
<path d="M29890 10340 c-136 -23 -235 -82 -287 -169 -74 -124 -47 -286 60
-360 54 -37 114 -55 268 -85 70 -14 141 -32 158 -41 93 -48 44 -153 -79 -170
-98 -14 -194 35 -221 113 -8 23 -16 31 -28 28 -9 -3 -67 -15 -129 -27 -127
-25 -122 -18 -76 -111 66 -132 183 -194 384 -205 217 -11 361 50 426 183 31
63 42 159 25 220 -32 117 -114 168 -351 214 -85 17 -165 38 -178 46 -60 39
-49 113 22 145 90 41 211 12 243 -58 10 -21 18 -39 19 -41 3 -4 210 37 236 47
17 6 17 11 -14 70 -59 116 -157 179 -306 201 -76 11 -108 11 -172 0z"/>
<path d="M27920 9825 l0 -495 130 0 130 0 0 495 0 495 -130 0 -130 0 0 -495z"/>
<path d="M29660 8241 c-310 -68 -534 -241 -674 -518 -131 -261 -138 -612 -17
-893 46 -107 98 -186 180 -273 127 -135 280 -224 468 -274 85 -22 119 -26 258
-27 98 0 183 4 220 12 374 82 637 316 748 668 75 237 57 545 -46 766 -120 260
-350 452 -632 528 -117 32 -385 37 -505 11z m409 -437 c87 -29 142 -65 204
-134 102 -114 143 -248 134 -449 -6 -153 -32 -238 -101 -336 -96 -133 -239
-205 -412 -205 -192 0 -342 76 -441 225 -108 164 -124 450 -35 639 115 243
380 349 651 260z"/>
<path d="M11310 7256 l0 -976 230 0 230 0 0 330 0 330 154 0 154 0 200 -327
200 -328 257 -3 c232 -2 257 -1 251 14 -3 8 -112 187 -242 397 l-236 381 29
20 c15 10 57 49 93 85 112 114 164 250 162 421 -3 302 -168 520 -457 606 -53
15 -117 18 -542 21 l-483 4 0 -975z m897 540 c89 -37 129 -118 120 -239 -3
-55 -10 -77 -33 -110 -55 -77 -71 -82 -311 -85 l-213 -3 0 231 0 232 198 -4
c160 -4 205 -8 239 -22z"/>
<path d="M13160 7255 l0 -975 685 0 685 0 0 210 0 210 -455 0 -455 0 0 190 0
190 300 0 300 0 -2 208 -3 207 -298 3 -298 2 3 158 3 157 443 3 442 2 0 205 0
205 -675 0 -675 0 0 -975z"/>
<path d="M14772 7258 l3 -973 230 0 230 0 3 403 2 402 385 0 385 0 0 -405 0
-405 230 0 230 0 0 975 0 975 -230 0 -230 0 0 -355 0 -355 -385 0 -385 0 0
355 0 355 -235 0 -235 0 2 -972z"/>
<path d="M17355 8218 c-3 -7 -164 -442 -360 -966 -195 -524 -355 -957 -355
-963 0 -6 86 -8 227 -7 l226 3 81 232 81 233 341 0 342 0 40 -112 c22 -62 59
-168 82 -235 l43 -123 238 0 c132 0 239 1 239 3 0 2 -162 439 -360 972 -198
533 -360 970 -360 972 0 2 -113 3 -250 3 -192 0 -252 -3 -255 -12z m341 -771
l91 -262 -185 -3 c-102 -1 -186 -1 -188 1 -5 4 180 527 186 527 3 0 46 -118
96 -263z"/>
<path d="M18742 7258 l3 -973 475 0 c427 0 482 2 545 19 280 73 440 271 439
541 -2 198 -84 343 -248 435 l-56 32 70 65 c53 49 79 83 107 140 35 71 38 84
41 181 3 78 0 121 -13 168 -33 123 -128 234 -250 295 -127 62 -126 62 -643 66
l-472 4 2 -973z m841 568 c99 -49 125 -198 51 -286 -49 -58 -72 -64 -261 -68
l-173 -4 0 192 0 191 173 -3 c145 -3 178 -6 210 -22z m53 -763 c95 -50 134
-147 103 -258 -14 -51 -73 -110 -124 -124 -23 -6 -122 -11 -227 -11 l-188 0 0
211 0 211 198 -4 c178 -3 201 -6 238 -25z"/>
<path d="M20422 7258 l3 -973 230 0 230 0 3 973 2 972 -235 0 -235 0 2 -972z"/>
<path d="M21230 7255 l0 -975 655 0 655 0 0 215 0 215 -425 0 -425 0 0 760 0
760 -230 0 -230 0 0 -975z"/>
<path d="M22742 7258 l3 -973 230 0 230 0 3 973 2 972 -235 0 -235 0 2 -972z"/>
<path d="M23420 8015 l0 -215 270 0 270 0 2 -757 3 -758 230 0 230 0 3 758 2
757 270 0 270 0 0 215 0 215 -775 0 -775 0 0 -215z"/>
<path d="M25125 7268 c-197 -530 -360 -969 -363 -975 -6 -17 443 -19 454 -2 3
6 41 111 84 232 l78 222 343 0 342 0 81 -230 81 -230 238 -3 c130 -1 237 1
237 6 0 4 -161 442 -359 972 l-358 965 -250 3 -249 2 -359 -962z m695 177 c50
-142 90 -259 90 -261 0 -2 -83 -4 -185 -4 -134 0 -185 3 -185 12 0 6 37 115
81 242 100 285 98 280 104 274 3 -3 46 -121 95 -263z"/>
<path d="M26420 8015 l0 -215 270 0 270 0 0 -760 0 -760 230 0 230 0 0 760 0
760 270 0 270 0 0 215 0 215 -770 0 -770 0 0 -215z"/>
<path d="M28180 7255 l0 -975 230 0 230 0 0 975 0 975 -230 0 -230 0 0 -975z"/>
<path d="M31130 7255 l0 -975 215 0 215 0 1 638 c0 602 1 636 17 613 9 -13
184 -299 387 -635 l371 -611 247 -3 247 -2 0 975 0 975 -215 0 -215 0 0 -632
c-1 -549 -3 -631 -15 -614 -8 10 -182 295 -387 632 l-373 614 -247 0 -248 0 0
-975z"/>
</g>
</svg>
